<svg xmlns="http://www.w3.org/2000/svg" xmlns:xlink="http://www.w3.org/1999/xlink" width="500" zoomAndPan="magnify" viewBox="0 0 375 374.999991" height="500" preserveAspectRatio="xMidYMid meet" version="1.0"><defs><clipPath id="f6d17ffae8"><path d="M 10.226562 0 L 364.773438 0 L 364.773438 373 L 10.226562 373 Z M 10.226562 0 " clip-rule="nonzero"/></clipPath><clipPath id="44b3a9254b"><path d="M 187.5 0 L 201.136719 143.863281 L 297.273438 35.453125 L 223.636719 160.226562 L 364.773438 128.863281 L 231.816406 186.136719 L 364.773438 244.089844 L 223.636719 212.726562 L 297.273438 337.5 L 201.136719 228.410156 L 187.5 372.953125 L 173.863281 228.410156 L 77.726562 337.5 L 151.363281 212.726562 L 10.226562 244.089844 L 143.183594 186.136719 L 10.226562 128.863281 L 151.363281 160.226562 L 77.726562 35.453125 L 173.863281 143.863281 Z M 187.5 0 " clip-rule="nonzero"/></clipPath><clipPath id="039e23e059"><path d="M 0.226562 0 L 354.773438 0 L 354.773438 372.960938 L 0.226562 372.960938 Z M 0.226562 0 " clip-rule="nonzero"/></clipPath><clipPath id="a416909699"><path d="M 177.5 0 L 191.136719 143.863281 L 287.273438 35.453125 L 213.636719 160.226562 L 354.773438 128.863281 L 221.816406 186.136719 L 354.773438 244.089844 L 213.636719 212.726562 L 287.273438 337.5 L 191.136719 228.410156 L 177.5 372.953125 L 163.863281 228.410156 L 67.726562 337.5 L 141.363281 212.726562 L 0.226562 244.089844 L 133.183594 186.136719 L 0.226562 128.863281 L 141.363281 160.226562 L 67.726562 35.453125 L 163.863281 143.863281 Z M 177.5 0 " clip-rule="nonzero"/></clipPath><clipPath id="e59289ccfa"><rect x="0" width="355" y="0" height="373"/></clipPath></defs><g clip-path="url(#f6d17ffae8)"><g clip-path="url(#44b3a9254b)"><g transform="matrix(1, 0, 0, 1, 10, 0)"><g clip-path="url(#e59289ccfa)"><g clip-path="url(#039e23e059)"><g clip-path="url(#a416909699)"><path fill="#ffffff" d="M 0.226562 0 L 354.773438 0 L 354.773438 375.320312 L 0.226562 375.320312 Z M 0.226562 0 " fill-opacity="1" fill-rule="nonzero"/></g></g></g></g></g></g></svg>