<svg xmlns="http://www.w3.org/2000/svg" xmlns:xlink="http://www.w3.org/1999/xlink" width="500" zoomAndPan="magnify" viewBox="0 0 375 374.999991" height="500" preserveAspectRatio="xMidYMid meet" version="1.0"><path fill="#ffffff" d="M 187.503906 348.273438 C 98.855469 348.273438 26.734375 276.152344 26.734375 187.503906 C 26.734375 98.855469 98.855469 26.734375 187.503906 26.734375 C 276.152344 26.734375 348.273438 98.855469 348.273438 187.503906 C 348.273438 276.152344 276.152344 348.273438 187.503906 348.273438 Z M 319.96875 55.039062 C 284.585938 19.65625 237.542969 0.171875 187.503906 0.171875 C 137.464844 0.171875 90.421875 19.65625 55.039062 55.039062 C 19.65625 90.421875 0.171875 137.464844 0.171875 187.503906 C 0.171875 237.542969 19.65625 284.585938 55.039062 319.96875 C 90.421875 355.351562 137.464844 374.839844 187.503906 374.839844 C 237.542969 374.839844 284.585938 355.351562 319.96875 319.96875 C 355.351562 284.585938 374.839844 237.542969 374.839844 187.503906 C 374.839844 137.464844 355.351562 90.421875 319.96875 55.039062 " fill-opacity="1" fill-rule="nonzero"/><path fill="#ffffff" d="M 187.503906 26.902344 C 98.949219 26.902344 26.902344 98.949219 26.902344 187.503906 C 26.902344 276.058594 98.949219 348.105469 187.503906 348.105469 C 276.058594 348.105469 348.105469 276.058594 348.105469 187.503906 C 348.105469 98.949219 276.058594 26.902344 187.503906 26.902344 Z M 187.503906 348.445312 C 98.761719 348.445312 26.5625 276.246094 26.5625 187.503906 C 26.5625 98.761719 98.761719 26.5625 187.503906 26.5625 C 276.246094 26.5625 348.445312 98.761719 348.445312 187.503906 C 348.445312 276.246094 276.246094 348.445312 187.503906 348.445312 Z M 187.503906 0.339844 C 137.511719 0.339844 90.511719 19.808594 55.160156 55.160156 C 19.808594 90.511719 0.339844 137.511719 0.339844 187.503906 C 0.339844 237.496094 19.808594 284.5 55.160156 319.847656 C 90.511719 355.199219 137.511719 374.667969 187.503906 374.667969 C 237.496094 374.667969 284.5 355.199219 319.847656 319.847656 C 355.199219 284.5 374.667969 237.496094 374.667969 187.503906 C 374.667969 137.511719 355.199219 90.507812 319.847656 55.160156 C 284.5 19.808594 237.496094 0.339844 187.503906 0.339844 Z M 187.503906 375.011719 C 137.421875 375.011719 90.332031 355.503906 54.917969 320.089844 C 19.503906 284.675781 0 237.589844 0 187.503906 C 0 137.421875 19.503906 90.332031 54.917969 54.917969 C 90.332031 19.503906 137.421875 0 187.503906 0 C 237.589844 0 284.675781 19.503906 320.089844 54.917969 C 355.507812 90.332031 375.011719 137.417969 375.011719 187.503906 C 375.011719 237.589844 355.507812 284.675781 320.089844 320.089844 C 284.675781 355.503906 237.589844 375.011719 187.503906 375.011719 " fill-opacity="1" fill-rule="nonzero"/><path fill="#ffffff" d="M 187.503906 108.492188 C 208.609375 108.492188 228.453125 116.707031 243.375 131.632812 L 252.765625 141.023438 L 271.550781 122.238281 L 262.15625 112.847656 C 242.21875 92.910156 215.703125 81.925781 187.503906 81.925781 C 159.300781 81.925781 132.789062 92.910156 112.847656 112.847656 C 92.90625 132.789062 81.925781 159.304688 81.925781 187.503906 C 81.925781 215.707031 92.910156 242.21875 112.847656 262.15625 C 132.789062 282.097656 159.304688 293.082031 187.503906 293.082031 C 215.703125 293.082031 242.214844 282.097656 262.15625 262.15625 L 271.550781 252.765625 L 252.765625 233.980469 L 243.375 243.375 C 228.449219 258.300781 208.605469 266.519531 187.503906 266.519531 C 166.398438 266.519531 146.554688 258.300781 131.632812 243.375 C 116.707031 228.453125 108.488281 208.609375 108.488281 187.503906 C 108.488281 166.398438 116.707031 146.554688 131.632812 131.632812 C 146.554688 116.707031 166.394531 108.492188 187.503906 108.492188 " fill-opacity="1" fill-rule="nonzero"/><path fill="#ffffff" d="M 187.503906 82.097656 C 159.347656 82.097656 132.875 93.0625 112.96875 112.96875 C 93.058594 132.878906 82.09375 159.347656 82.097656 187.503906 C 82.097656 215.660156 93.058594 242.128906 112.96875 262.035156 C 132.878906 281.945312 159.347656 292.910156 187.503906 292.910156 C 215.65625 292.910156 242.128906 281.945312 262.035156 262.035156 L 271.308594 252.765625 L 252.765625 234.222656 L 243.496094 243.496094 C 228.535156 258.449219 208.652344 266.6875 187.503906 266.6875 C 166.351562 266.6875 146.46875 258.449219 131.511719 243.496094 C 116.554688 228.539062 108.320312 208.65625 108.316406 187.503906 C 108.316406 166.351562 116.554688 146.46875 131.511719 131.511719 C 146.464844 116.554688 166.351562 108.320312 187.503906 108.320312 C 208.65625 108.320312 228.539062 116.554688 243.496094 131.511719 L 252.765625 140.78125 L 271.308594 122.238281 L 262.035156 112.96875 C 242.128906 93.0625 215.660156 82.097656 187.503906 82.097656 Z M 187.503906 293.253906 C 159.257812 293.253906 132.699219 282.25 112.726562 262.277344 C 92.753906 242.304688 81.753906 215.75 81.753906 187.503906 C 81.753906 159.257812 92.753906 132.699219 112.726562 112.726562 C 132.699219 92.757812 159.253906 81.757812 187.503906 81.757812 C 215.75 81.757812 242.304688 92.757812 262.277344 112.726562 L 271.789062 122.238281 L 252.765625 141.265625 L 243.253906 131.75 C 228.363281 116.863281 208.5625 108.660156 187.503906 108.660156 C 166.441406 108.660156 146.644531 116.863281 131.753906 131.75 C 116.859375 146.644531 108.660156 166.445312 108.660156 187.503906 C 108.660156 208.5625 116.859375 228.363281 131.753906 243.253906 C 146.644531 258.144531 166.441406 266.347656 187.503906 266.347656 C 208.558594 266.347656 228.359375 258.144531 243.253906 243.253906 L 252.765625 233.742188 L 271.789062 252.765625 L 262.277344 262.277344 C 242.304688 282.25 215.75 293.253906 187.503906 293.253906 " fill-opacity="1" fill-rule="nonzero"/></svg>