<svg xmlns="http://www.w3.org/2000/svg" xmlns:xlink="http://www.w3.org/1999/xlink" width="500" zoomAndPan="magnify" viewBox="0 0 375 374.999991" height="500" preserveAspectRatio="xMidYMid meet" version="1.0"><defs><clipPath id="907beca1cc"><path d="M 0 37.5 L 375 37.5 L 375 318 L 0 318 Z M 0 37.5 " clip-rule="nonzero"/></clipPath></defs><g clip-path="url(#907beca1cc)"><path fill="#ffffff" d="M 345.578125 318.285156 L 29.058594 318.285156 C 26.65625 317.972656 24.90625 317.703125 23.8125 317.476562 C 13.671875 315.34375 5.257812 307.402344 1.878906 297.917969 C 0.867188 295.085938 0.488281 292.117188 0 289.109375 L 0 66.226562 C 0.527344 64.792969 0.488281 63.183594 0.785156 61.964844 C 1.1875 60.296875 1.59375 58.4375 2.257812 56.890625 C 6.53125 46.890625 13.992188 40.710938 24.640625 38.355469 C 25.617188 38.136719 26.601562 38.003906 27.582031 37.960938 C 28.90625 37.90625 30.195312 37.597656 31.535156 37.597656 C 134.652344 37.550781 238.871094 37.550781 344.1875 37.597656 C 344.996094 37.597656 345.792969 37.65625 346.582031 37.769531 C 347.371094 37.890625 348.164062 38.003906 348.960938 38.109375 C 351.71875 38.472656 354.15625 39.125 356.273438 40.074219 C 366.351562 44.570312 373.792969 54.039062 374.53125 65.316406 C 374.652344 67.144531 374.835938 68.925781 374.824219 70.738281 C 374.402344 126.703125 374.636719 182.714844 374.640625 242.632812 C 374.640625 255.46875 374.976562 268.96875 374.796875 282.488281 C 374.746094 286.65625 374.648438 289.476562 374.511719 290.949219 C 373.675781 299.804688 369.496094 307.023438 361.96875 312.605469 C 358.386719 315.261719 354.378906 316.949219 349.953125 317.664062 C 348.496094 317.902344 347.039062 318.109375 345.578125 318.285156 Z M 181.839844 206.332031 C 186.601562 208.132812 192.191406 206.960938 195.886719 203.523438 C 228.554688 173.105469 261.035156 142.996094 293.328125 113.199219 C 311.980469 95.992188 330.472656 78.867188 348.804688 61.832031 C 349.085938 61.570312 349.097656 61.300781 348.832031 61.015625 C 348.414062 60.578125 347.792969 60.359375 346.96875 60.359375 C 240.007812 60.320312 134.339844 60.304688 29.972656 60.304688 C 27.925781 60.304688 26.757812 60.777344 25.375 62.101562 C 25.175781 62.292969 25.179688 62.480469 25.382812 62.664062 C 26.503906 63.644531 27.621094 64.644531 28.738281 65.664062 C 41.1875 77.039062 55.148438 89.945312 70.625 104.382812 C 103.847656 135.378906 136.089844 165.34375 167.351562 194.273438 C 170.128906 196.84375 172.976562 199.476562 175.902344 202.171875 C 178.246094 204.335938 180.226562 205.722656 181.839844 206.332031 Z M 351.503906 91.554688 C 351.503906 91.480469 351.464844 91.414062 351.390625 91.355469 C 351.3125 91.292969 351.234375 91.289062 351.15625 91.347656 C 348.582031 93.335938 346.511719 95.671875 344.0625 97.949219 C 317.53125 122.597656 290.3125 147.992188 262.40625 174.125 C 262.144531 174.378906 261.863281 174.605469 261.5625 174.800781 C 261.140625 175.089844 261.121094 175.398438 261.515625 175.730469 C 262.445312 176.519531 263.265625 177.25 263.980469 177.917969 C 279.066406 192.054688 295.304688 207.359375 312.699219 223.828125 C 316.0625 227.011719 319.015625 229.851562 321.558594 232.351562 C 324.324219 235.066406 327.261719 237.636719 330.023438 240.347656 C 332.179688 242.464844 334.292969 244.464844 336.355469 246.339844 C 339.796875 249.453125 342.941406 252.734375 346.398438 255.859375 C 348.035156 257.335938 349.621094 258.871094 351.15625 260.46875 C 351.21875 260.539062 351.292969 260.5625 351.382812 260.546875 C 351.527344 260.519531 351.597656 260.453125 351.597656 260.347656 C 351.601562 204.175781 351.597656 148.027344 351.585938 91.898438 C 351.585938 91.824219 351.570312 91.757812 351.535156 91.691406 C 351.515625 91.652344 351.503906 91.605469 351.503906 91.554688 Z M 23.703125 260.550781 C 26.023438 258.230469 28.539062 255.785156 31.246094 253.207031 C 55.515625 230.125 79.488281 207.234375 103.15625 184.539062 C 105.847656 181.953125 108.679688 179.28125 111.652344 176.515625 C 112.230469 175.980469 112.226562 175.445312 111.640625 174.914062 C 110.496094 173.878906 109.414062 172.878906 108.386719 171.917969 C 79.789062 145.140625 52.863281 120.054688 27.609375 96.667969 C 26.097656 95.265625 24.648438 93.914062 23.265625 92.617188 C 23.207031 92.558594 23.175781 92.558594 23.175781 92.617188 L 23.066406 260.285156 C 23.066406 260.886719 23.277344 260.976562 23.703125 260.550781 Z M 188.589844 230.605469 C 177.21875 231.121094 168.046875 227 159.730469 219.167969 C 152.164062 212.046875 142.820312 203.296875 131.707031 192.917969 C 131.238281 192.484375 130.734375 192.0625 130.195312 191.652344 C 130.035156 191.535156 129.855469 191.480469 129.65625 191.488281 C 129.460938 191.5 129.289062 191.570312 129.144531 191.707031 C 127.746094 192.972656 126.421875 194.398438 125.066406 195.691406 C 96.078125 223.378906 67.367188 250.871094 38.929688 278.167969 C 35.339844 281.617188 32.136719 284.628906 29.324219 287.199219 C 27.738281 288.648438 26.246094 290.082031 24.839844 291.492188 C 24.464844 291.875 24.457031 292.257812 24.824219 292.652344 C 27.070312 295.046875 29.054688 294.882812 32.683594 294.882812 C 136.628906 294.882812 240.570312 294.882812 344.515625 294.882812 C 347.078125 294.882812 348.5 294.628906 349.867188 292.554688 C 350.179688 292.070312 350.128906 291.632812 349.714844 291.242188 C 316.21875 259.554688 282.734375 227.832031 249.261719 196.078125 C 247.398438 194.304688 245.816406 192.710938 244.523438 191.289062 C 244.351562 191.101562 244.140625 191 243.886719 190.992188 C 243.632812 190.980469 243.414062 191.0625 243.226562 191.234375 C 233.789062 199.957031 224.421875 208.808594 215.066406 217.601562 C 211.480469 220.976562 208.699219 223.300781 206.734375 224.570312 C 200.945312 228.304688 194.894531 230.316406 188.589844 230.605469 Z M 188.589844 230.605469 " fill-opacity="1" fill-rule="nonzero"/></g></svg>