<svg xmlns="http://www.w3.org/2000/svg" xmlns:xlink="http://www.w3.org/1999/xlink" width="500" zoomAndPan="magnify" viewBox="0 0 375 374.999991" height="500" preserveAspectRatio="xMidYMid meet" version="1.0"><path fill="#ffffff" d="M 316.53125 317.027344 L 261.492188 317.027344 L 261.492188 230.773438 C 261.492188 210.214844 261.125 183.730469 232.871094 183.730469 C 204.617188 183.730469 199.816406 206.148438 199.816406 229.285156 L 199.816406 317.027344 L 144.777344 317.027344 L 144.777344 139.652344 L 197.625 139.652344 L 197.625 163.890625 L 198.363281 163.890625 C 209.132812 145.453125 229.175781 134.445312 250.492188 135.234375 C 306.285156 135.234375 316.566406 171.953125 316.566406 219.714844 L 316.566406 317.027344 Z M 82.644531 115.410156 C 65.003906 115.410156 50.695312 101.109375 50.695312 83.457031 C 50.695312 65.808594 64.988281 51.488281 82.628906 51.488281 C 100.265625 51.488281 114.578125 65.789062 114.578125 83.441406 C 114.578125 101.089844 100.285156 115.410156 82.644531 115.410156 M 110.179688 317.027344 L 55.074219 317.027344 L 55.074219 139.652344 L 110.179688 139.652344 Z M 343.980469 0.328125 L 27.414062 0.328125 C 12.453125 0.167969 0.175781 12.15625 0 27.125 L 0 345.191406 C 0.175781 360.179688 12.4375 372.167969 27.414062 372.007812 L 343.980469 372.007812 C 358.972656 372.203125 371.289062 360.195312 371.5 345.191406 L 371.5 27.109375 C 371.289062 12.105469 358.972656 0.117188 343.980469 0.308594 " fill-opacity="1" fill-rule="nonzero"/></svg>