<svg xmlns="http://www.w3.org/2000/svg" xmlns:xlink="http://www.w3.org/1999/xlink" width="500" zoomAndPan="magnify" viewBox="0 0 375 374.999991" height="500" preserveAspectRatio="xMidYMid meet" version="1.0"><defs><clipPath id="553808d7ee"><path d="M 9 0 L 242 0 L 242 366 L 9 366 Z M 9 0 " clip-rule="nonzero"/></clipPath></defs><path fill="#ffffff" d="M 239.726562 64.324219 C 233.839844 44.199219 229.648438 23.820312 241.148438 1.121094 C 242.679688 1.007812 255.230469 1.246094 255.683594 1.289062 C 258.371094 1.546875 261.078125 1.921875 263.726562 2.414062 C 313.816406 11.648438 354.820312 60.71875 361.847656 87.402344 C 364.128906 96.15625 364.417969 100.695312 365.042969 107.851562 C 367.542969 137.6875 347.28125 188.382812 314.8125 203.339844 C 331.738281 189.492188 360.128906 117.136719 277.222656 75.492188 C 255.539062 64.597656 239.878906 61.511719 239.726562 64.324219 Z M 239.726562 64.324219 " fill-opacity="1" fill-rule="nonzero"/><path fill="#ffffff" d="M 178.519531 1.574219 L 240.933594 1.351562 C 238.671875 38.660156 240.703125 253.253906 240.703125 253.253906 C 240.253906 288.527344 225.105469 314.757812 206.785156 332.167969 C 205.203125 333.75 203.625 335.335938 201.8125 336.6875 C 178.296875 356.589844 155.230469 365.859375 123.574219 365.632812 C 92.371094 365.183594 68.851562 353.425781 48.953125 336.238281 C 34.03125 323.351562 22.046875 306.617188 15.261719 283.550781 C 0.5625 232.902344 19.558594 183.605469 61.617188 154.890625 C 62.296875 154.210938 63.199219 153.527344 64.105469 153.078125 C 83.324219 139.738281 113.175781 131.824219 140.984375 136.34375 L 140.984375 200.113281 C 121.765625 195.136719 104.582031 199.433594 91.917969 210.058594 C 91.691406 210.058594 91.691406 210.289062 91.460938 210.515625 C 79.257812 220.914062 72.242188 236.292969 73.148438 253.703125 C 75.410156 284.910156 101.1875 304.355469 129.226562 303 C 129.226562 303 129.453125 303 129.453125 303 C 156.589844 300.285156 178.976562 278.128906 178.296875 248.277344 Z M 178.519531 1.574219 " fill-opacity="1" fill-rule="evenodd"/><g clip-path="url(#553808d7ee)"><path stroke-linecap="round" transform="matrix(2.261234, 0, 0, 2.261234, -48541.338408, -46913.368119)" fill="none" stroke-linejoin="miter" d="M 21545.698712 20747.499182 L 21573.300488 20747.400715 C 21572.300273 20763.899936 21573.198566 20858.801122 21573.198566 20858.801122 C 21572.999905 20874.400323 21566.300713 20886.000393 21558.198803 20893.699799 C 21557.499171 20894.399431 21556.801266 20895.100791 21555.999713 20895.698501 C 21545.600245 20904.500044 21535.399439 20908.599368 21521.39989 20908.499174 C 21507.60073 20908.300513 21497.199535 20903.10078 21488.39972 20895.49984 C 21481.800723 20889.800863 21476.500795 20882.400312 21473.500151 20872.199505 C 21466.99962 20849.800918 21475.400386 20828.000042 21494.000231 20815.30129 C 21494.300813 20815.000707 21494.699863 20814.698397 21495.100639 20814.499736 C 21503.599872 20808.600371 21516.801322 20805.100484 21529.099297 20807.099185 L 21529.099297 20835.300399 C 21520.600064 20833.099581 21513.000852 20834.999816 21507.400342 20839.698579 C 21507.300147 20839.698579 21507.300147 20839.8005 21507.198226 20839.900695 C 21501.801559 20844.499263 21498.698993 20851.300376 21499.09977 20858.999783 C 21500.099985 20872.800671 21511.499667 20881.400097 21523.899563 20880.800659 C 21523.899563 20880.800659 21523.999757 20880.800659 21523.999757 20880.800659 C 21536.000604 20879.600056 21545.900828 20869.801754 21545.600245 20856.600304 Z M 21545.698712 20747.499182 " stroke="#000000" stroke-width="0.17" stroke-opacity="1" stroke-miterlimit="1.5"/></g></svg>